<svg width="362" height="340" viewBox="0 0 362 340" fill="none" xmlns="http://www.w3.org/2000/svg">
<path d="M337.265 340H15.5142C11.401 339.995 7.45758 338.359 4.5491 335.451C1.64063 332.542 0.00462151 328.598 0 324.485V185.984C0.0046772 181.871 1.64069 177.927 4.54915 175.018C7.45762 172.11 11.401 170.474 15.5142 170.469H337.265C341.378 170.474 345.321 172.11 348.23 175.018C351.138 177.927 352.774 181.871 352.779 185.984V324.485C352.775 328.598 351.138 332.542 348.23 335.451C345.322 338.359 341.378 339.995 337.265 340Z" fill="white"/>
<path d="M337.265 340H15.5142C11.401 339.995 7.45757 338.359 4.5491 335.451C1.64063 332.542 0.00462151 328.598 0 324.485V185.984C0.00467875 181.871 1.64069 177.927 4.54915 175.018C7.45762 172.11 11.401 170.474 15.5142 170.469C111.498 159.997 220.789 161.894 337.265 170.469C341.378 170.474 345.321 172.11 348.23 175.018C351.138 177.927 352.774 181.871 352.779 185.984C364.837 226.143 365.308 283.223 352.779 324.485C352.774 328.598 351.138 332.542 348.23 335.451C345.321 338.359 341.378 339.995 337.265 340ZM15.5142 171.818C13.654 171.818 11.812 172.185 10.0934 172.896C8.37483 173.608 6.81327 174.652 5.49792 175.967C4.18257 177.283 3.13917 178.844 2.4273 180.563C1.71544 182.282 1.34905 184.124 1.34905 185.984V324.485C1.34905 328.242 2.84144 331.845 5.49792 334.502C8.1544 337.158 11.7574 338.651 15.5142 338.651H337.265C341.022 338.651 344.625 337.158 347.281 334.502C349.938 331.845 351.43 328.242 351.43 324.485V262.045C351.43 238.115 341.925 215.166 325.005 198.245C308.085 181.324 285.137 171.818 261.209 171.818L15.5142 171.818Z" fill="#E6E6E6"/>
<path d="M236.784 190.994H196.35C196.128 190.995 195.909 190.952 195.704 190.867C195.498 190.783 195.312 190.659 195.155 190.503C194.998 190.346 194.873 190.16 194.788 189.955C194.703 189.75 194.659 189.531 194.659 189.309C194.659 189.087 194.703 188.868 194.788 188.663C194.873 188.458 194.998 188.272 195.155 188.115C195.312 187.959 195.498 187.835 195.704 187.75C195.909 187.666 196.128 187.623 196.35 187.624H236.784C237.006 187.623 237.226 187.666 237.431 187.75C237.636 187.835 237.822 187.959 237.979 188.115C238.137 188.272 238.261 188.458 238.346 188.663C238.431 188.868 238.475 189.087 238.475 189.309C238.475 189.531 238.431 189.75 238.346 189.955C238.261 190.16 238.137 190.346 237.979 190.503C237.822 190.659 237.636 190.783 237.431 190.867C237.226 190.952 237.006 190.995 236.784 190.994Z" fill="#4CAF4F"/>
<path d="M201.64 243.128H161.206C160.984 243.129 160.764 243.086 160.559 243.002C160.354 242.917 160.168 242.793 160.011 242.637C159.853 242.48 159.729 242.294 159.644 242.09C159.559 241.885 159.515 241.665 159.515 241.443C159.515 241.222 159.559 241.002 159.644 240.797C159.729 240.592 159.853 240.406 160.011 240.25C160.168 240.093 160.354 239.969 160.559 239.885C160.764 239.801 160.984 239.758 161.206 239.758H201.64C201.862 239.758 202.081 239.801 202.286 239.885C202.492 239.969 202.678 240.093 202.835 240.25C202.992 240.406 203.117 240.592 203.202 240.797C203.287 241.002 203.331 241.222 203.331 241.443C203.331 241.665 203.287 241.885 203.202 242.09C203.117 242.294 202.992 242.48 202.835 242.637C202.678 242.793 202.492 242.917 202.286 243.002C202.081 243.086 201.862 243.129 201.64 243.128Z" fill="#4CAF4F"/>
<path d="M233.573 239.657C231.88 237.251 230.474 234.656 229.384 231.923C229.351 231.84 229.295 231.77 229.221 231.72C229.148 231.67 229.061 231.643 228.972 231.643C228.883 231.643 228.797 231.67 228.723 231.72C228.65 231.77 228.593 231.84 228.56 231.923C227.471 234.656 226.066 237.251 224.373 239.657C224.316 239.734 224.286 239.828 224.287 239.924C224.288 240.019 224.319 240.112 224.377 240.189C224.434 240.265 224.515 240.321 224.607 240.348C224.699 240.375 224.797 240.372 224.887 240.339L228.386 239.073V260.737H229.558V239.073L233.059 240.339C233.148 240.372 233.247 240.375 233.338 240.348C233.43 240.321 233.511 240.265 233.569 240.189C233.626 240.113 233.658 240.019 233.659 239.924C233.659 239.828 233.629 239.734 233.573 239.657Z" fill="#3F3D56"/>
<path d="M196.583 201.462C196.55 201.38 196.493 201.309 196.42 201.259C196.346 201.21 196.26 201.183 196.171 201.183C196.082 201.183 195.995 201.21 195.922 201.259C195.849 201.309 195.792 201.38 195.759 201.462C194.67 204.195 193.264 206.791 191.571 209.197C191.515 209.274 191.485 209.367 191.485 209.463C191.486 209.559 191.518 209.652 191.575 209.728C191.633 209.805 191.714 209.861 191.806 209.888C191.898 209.915 191.996 209.911 192.086 209.878L195.585 208.612V230.277H196.757V208.612L200.257 209.878C200.347 209.912 200.445 209.915 200.537 209.888C200.629 209.861 200.71 209.805 200.768 209.728C200.825 209.652 200.857 209.559 200.857 209.463C200.858 209.368 200.828 209.274 200.772 209.197C199.078 206.791 197.673 204.195 196.583 201.462Z" fill="#3F3D56"/>
<path d="M163.782 250.082C163.749 250 163.692 249.929 163.619 249.879C163.545 249.829 163.458 249.803 163.37 249.803C163.281 249.803 163.194 249.829 163.121 249.879C163.047 249.929 162.99 250 162.958 250.082C161.869 252.815 160.463 255.411 158.77 257.816C158.714 257.894 158.683 257.987 158.684 258.083C158.685 258.179 158.717 258.272 158.774 258.348C158.832 258.424 158.913 258.48 159.005 258.507C159.096 258.534 159.195 258.531 159.284 258.498L162.784 257.232V278.896H163.955V257.232L167.456 258.498C167.546 258.531 167.644 258.534 167.736 258.507C167.828 258.48 167.909 258.425 167.966 258.348C168.024 258.272 168.055 258.179 168.056 258.083C168.057 257.987 168.027 257.894 167.97 257.816C166.277 255.411 164.871 252.815 163.782 250.082Z" fill="#3F3D56"/>
<path d="M307.461 267.767V258.394C288.762 244.639 278.396 244.494 272.317 247.264C264.599 250.781 262.076 259.772 259.176 267.767H307.461Z" fill="#F2F2F2"/>
<path d="M157.003 304.085C152.95 300.918 151.194 292.356 142.869 290.026C138.013 288.668 133.919 290.269 127.054 292.955C118.007 296.494 114.021 300.509 108.666 304.085H157.003Z" fill="#F2F2F2"/>
<path d="M175.031 287.683C169.607 294.556 166.958 301.401 163.501 304.085H307.461V287.683H175.031Z" fill="#F2F2F2"/>
<path d="M258.524 269.524C256.309 275.316 253.659 280.297 248.301 281.825C238.87 284.515 234.64 272.63 216.672 270.695C214.839 270.498 198.936 269.007 185.042 278.31C181.858 280.452 178.977 283.014 176.478 285.926H307.461V269.524H258.524Z" fill="#F2F2F2"/>
<path d="M200.271 280.654C205.123 280.654 209.057 276.72 209.057 271.867C209.057 267.014 205.123 263.08 200.271 263.08C195.419 263.08 191.485 267.014 191.485 271.867C191.485 276.72 195.419 280.654 200.271 280.654Z" fill="#4CAF4F"/>
<path d="M93.3173 329.929L101.673 329.928L105.647 297.698L93.3156 297.699L93.3173 329.929Z" fill="#FFB6B6"/>
<path d="M93.0233 338.646L118.717 338.645V338.32C118.717 335.667 117.663 333.124 115.788 331.248C113.912 329.373 111.369 328.319 108.716 328.319L104.023 324.758L95.2659 328.319L93.0229 328.319L93.0233 338.646Z" fill="#2F2E41"/>
<path d="M98.0185 296.17L91.2263 301.036L69.2236 277.154L79.2479 269.971L98.0185 296.17Z" fill="#FFB6B6"/>
<path d="M103.335 303.084L82.449 318.051L82.2597 317.787C80.715 315.63 80.0899 312.949 80.5219 310.332C80.954 307.715 82.4078 305.377 84.5637 303.831L84.5642 303.831L86.3051 298.203L95.4972 295.997L97.3204 294.69L103.335 303.084Z" fill="#2F2E41"/>
<path d="M66.6898 146.581C66.6898 146.581 14.8882 202.323 23.848 218.663C32.8079 235.003 76.026 290.874 76.026 290.874L87.8743 277.268C77.9164 253.639 67.2017 232.987 54.7018 219.358L90.9225 192.599C90.9225 192.599 93.5878 236.896 91.3951 243.856C89.2023 250.815 85.5129 247.126 89.2023 250.815C92.8916 254.505 94.7527 255.182 92.768 257.479C90.7834 259.776 89.356 312.099 89.356 312.099H106.4C106.4 312.099 122.305 215.704 121.302 212.176C120.298 208.648 120.874 210.266 120.85 205.767C120.825 201.269 128.099 164.417 128.099 164.417L66.6898 146.581Z" fill="#2F2E41"/>
<path d="M101.852 42.2297L85.513 43.2839L74.7916 57.0163L56.9524 70.6111L68.271 105.061C68.271 105.061 67.7136 122.667 65.8088 124.879C63.9039 127.091 60.7416 124.455 63.9039 129.199C65.8318 132.205 66.9234 135.671 67.0662 139.239C67.0662 139.239 49.0467 154.236 55.4711 158.189C61.8955 162.142 74.8718 151.864 81.51 157.926C88.1482 163.987 132.246 176.193 132.42 167.677C132.595 159.16 121.409 92.6596 121.409 92.6596L123.988 60.6778L109.23 50.6632L101.852 42.2297Z" fill="#4CAF4F"/>
<path d="M75.9902 176.603L70.452 159.93L60.4868 161.765L66.9693 179.184C66.5752 180.205 66.4736 181.315 66.6759 182.39C66.8782 183.465 67.3763 184.463 68.1144 185.271C68.8524 186.078 69.8011 186.664 70.8538 186.962C71.9065 187.26 73.0214 187.258 74.0732 186.957C75.125 186.656 76.0719 186.068 76.8077 185.258C77.5434 184.448 78.0387 183.449 78.2379 182.374C78.4371 181.298 78.3322 180.188 77.9352 179.168C77.5381 178.149 76.8645 177.26 75.9902 176.603Z" fill="#FFB6B6"/>
<path d="M61.2536 67.928L60.9909 68.0374C58.5474 69.0564 56.3892 70.6557 54.7029 72.6967C53.0167 74.7377 51.8533 77.159 51.3135 79.751C49.901 86.5122 48.5112 96.2915 49.61 105.449C51.5506 121.621 47.5738 128.737 50.1613 133.913C52.7488 139.088 53.3956 137.147 52.7487 141.029C52.1019 144.91 48.8675 141.675 52.1019 146.851C55.3362 152.026 57.2768 150.732 55.9831 153.32C54.6894 155.907 52.7488 155.907 55.3362 159.142C57.9236 162.377 57.9236 163.67 58.5705 164.964C59.2174 166.258 61.1579 175.962 61.1579 175.962C61.1579 175.962 71.5077 172.727 77.3294 174.021C77.3294 174.021 72.1545 164.964 73.4483 163.023C74.742 161.083 76.6826 160.436 74.742 158.495C72.8014 156.554 69.5671 157.201 72.8014 155.261C76.0357 153.32 73.3907 113.914 73.3907 113.914L61.2536 67.928Z" fill="#388E3B"/>
<path d="M147.017 157.259L143.237 140.102L152.736 136.575L156.087 154.857C156.949 155.532 157.604 156.433 157.981 157.46C158.358 158.488 158.441 159.6 158.22 160.671C158 161.743 157.485 162.732 156.733 163.527C155.982 164.322 155.023 164.891 153.966 165.171C152.908 165.452 151.794 165.431 150.747 165.112C149.7 164.794 148.764 164.189 148.042 163.367C147.32 162.545 146.841 161.538 146.66 160.459C146.479 159.38 146.603 158.272 147.017 157.259Z" fill="#FFB6B6"/>
<path d="M108.556 53.6686L108.837 53.6281C111.458 53.252 114.131 53.5204 116.624 54.4099C119.118 55.2995 121.357 56.7835 123.148 58.7334C127.823 63.8174 134.024 71.5055 137.769 79.9336C144.383 94.8188 146.916 101.593 147.343 107.364C147.771 113.134 146.222 111.798 148.765 114.801C151.308 117.804 152.43 113.369 152.301 119.471C152.173 125.572 149.844 125.455 152.28 127.015C154.716 128.575 156.383 127.581 155.817 131.684C155.251 135.788 155.913 136.899 156.02 138.342C156.127 139.784 159.429 149.113 159.429 149.113C159.429 149.113 148.883 151.635 144.545 155.728C144.545 155.728 144.352 145.298 142.247 144.294C140.142 143.289 138.144 143.728 138.817 141.067C139.491 138.406 142.6 137.305 138.828 137.295C135.056 137.284 112.393 88.6135 112.393 88.6135L108.556 53.6686Z" fill="#388E3B"/>
<path d="M92.7414 40.536C102.241 40.536 109.941 32.8347 109.941 23.3348C109.941 13.8348 102.241 6.13354 92.7414 6.13354C83.2421 6.13354 75.5414 13.8348 75.5414 23.3348C75.5414 32.8347 83.2421 40.536 92.7414 40.536Z" fill="#FFB6B6"/>
<path d="M112.79 17.7455C111.023 18.5511 109.878 24.3859 108.49 23.0294C107.101 21.673 107.194 19.9078 105.322 19.4072C103.81 19.0012 102.183 19.4651 100.804 20.1969C100.558 20.3261 100.319 20.4664 100.086 20.6061C99.9327 20.5035 99.7799 20.4069 99.6158 20.3178C98.3823 19.6577 96.9427 19.4957 95.5934 19.8653C96.6596 20.2225 97.5865 20.9058 98.2432 21.8186C97.7817 22.1279 97.3142 22.438 96.836 22.7128C92.8413 25.0182 87.1571 20.0051 82.9523 18.1218C85.586 23.0646 84.2892 25.1117 82.0023 30.2236L81.9234 30.5146C82.0533 29.2335 78.089 28.2787 78.3189 30.0822C78.7206 31.9088 79.3565 33.6758 80.2108 35.3395C75.79 30.2274 72.7689 23.9716 73.4064 17.5181C73.5452 16.1625 73.5033 14.7321 74.2025 13.5555C74.9024 12.3849 76.3616 11.5635 77.6526 12.0098C77.5432 9.95179 77.9935 7.90255 78.9557 6.07999C79.9178 4.25744 81.3559 2.7297 83.1169 1.65918C84.8779 0.588663 86.896 0.0153908 88.9568 0.000305598C91.0176 -0.0147796 93.0439 0.528885 94.8204 1.57351C96.4711 2.54219 97.8492 3.91221 99.3621 5.09397C100.875 6.27571 102.619 7.30581 104.538 7.40337C105.755 7.46207 107.079 7.16492 108.125 7.7953C109.336 8.52677 109.543 10.0582 109.725 11.5319C108.645 11.6384 107.621 12.0646 106.784 12.756C107.902 12.642 109.027 12.8834 109.999 13.4458C110.018 13.4542 110.036 13.4642 110.052 13.4757C110.693 15.9112 110.627 16.4511 112.79 17.7455Z" fill="#2F2E41"/>
<path d="M268.414 226.141H227.98C227.758 226.141 227.539 226.099 227.333 226.014C227.128 225.93 226.942 225.806 226.785 225.649C226.628 225.493 226.503 225.307 226.418 225.102C226.333 224.897 226.289 224.678 226.289 224.456C226.289 224.234 226.333 224.014 226.418 223.81C226.503 223.605 226.628 223.419 226.785 223.262C226.942 223.106 227.128 222.982 227.333 222.897C227.539 222.813 227.758 222.77 227.98 222.771H268.414C268.636 222.77 268.855 222.813 269.061 222.897C269.266 222.982 269.452 223.106 269.609 223.262C269.766 223.419 269.891 223.605 269.976 223.81C270.061 224.014 270.105 224.234 270.105 224.456C270.105 224.678 270.061 224.897 269.976 225.102C269.891 225.307 269.766 225.493 269.609 225.649C269.452 225.806 269.266 225.93 269.061 226.014C268.855 226.099 268.636 226.141 268.414 226.141Z" fill="#4CAF4F"/>
<path d="M52.0494 327.044C51.7126 327.059 51.3792 326.971 51.0943 326.79C50.8095 326.61 50.5869 326.346 50.4568 326.035C50.3268 325.724 50.2954 325.381 50.3671 325.051C50.4388 324.722 50.6101 324.422 50.8577 324.193L50.9703 323.745C50.9555 323.709 50.9406 323.674 50.9256 323.638C50.5863 322.836 50.0177 322.153 49.2913 321.673C48.5649 321.194 47.713 320.94 46.8427 320.943C45.9723 320.946 45.1224 321.207 44.3995 321.692C43.6767 322.176 43.1132 322.864 42.7799 323.668C41.4476 326.877 39.7514 330.091 39.3338 333.484C39.1498 334.984 39.2274 336.504 39.5631 337.978C36.434 331.151 34.8091 323.732 34.7986 316.222C34.798 314.338 34.9026 312.455 35.1122 310.582C35.2854 309.047 35.5256 307.523 35.833 306.01C37.5101 297.798 41.111 290.102 46.34 283.552C48.8708 282.171 50.9175 280.048 52.2043 277.468C52.6705 276.54 53 275.55 53.1825 274.528C52.897 274.566 52.106 270.217 52.3213 269.951C51.9235 269.347 51.2114 269.047 50.7769 268.458C48.6158 265.527 45.6385 266.039 44.0842 270.021C40.7638 271.697 40.7316 274.476 42.769 277.149C44.0652 278.85 44.2433 281.151 45.3806 282.972C45.2635 283.122 45.1419 283.267 45.0249 283.417C42.886 286.167 41.0218 289.121 39.4591 292.235C39.8391 288.746 39.3855 285.217 38.1356 281.938C36.8688 278.881 34.4945 276.308 32.4036 273.665C29.8921 270.492 24.742 271.877 24.2995 275.9C24.2952 275.939 24.291 275.978 24.2869 276.017C24.5975 276.192 24.9015 276.378 25.1989 276.575C25.5726 276.824 25.8622 277.181 26.0297 277.598C26.1972 278.015 26.2348 278.473 26.1376 278.912C26.0404 279.351 25.8129 279.75 25.4849 280.057C25.1569 280.364 24.7438 280.566 24.2997 280.634L24.2542 280.641C24.3648 281.76 24.5604 282.87 24.8392 283.96C22.1568 294.334 27.9479 298.112 36.2167 298.282C36.3993 298.376 36.5772 298.469 36.7597 298.558C35.1896 303.008 34.2047 307.643 33.8299 312.347C33.6177 315.122 33.6302 317.91 33.8673 320.683L33.8533 320.585C33.2542 317.501 31.6093 314.719 29.1965 312.707C25.6128 309.763 20.5497 308.679 16.6836 306.313C16.2727 306.049 15.795 305.908 15.3067 305.907C14.8184 305.906 14.34 306.044 13.9278 306.306C13.5157 306.568 13.187 306.942 12.9805 307.385C12.774 307.827 12.6984 308.319 12.7625 308.803C12.7677 308.838 12.773 308.872 12.7784 308.907C13.3547 309.142 13.9158 309.412 14.4585 309.716C14.7691 309.892 15.0731 310.078 15.3706 310.274C15.7442 310.524 16.0338 310.881 16.2013 311.298C16.3687 311.715 16.4063 312.173 16.3091 312.612C16.2119 313.051 15.9844 313.45 15.6565 313.757C15.3285 314.064 14.9154 314.265 14.4713 314.334L14.4257 314.341C14.393 314.346 14.3649 314.35 14.3322 314.355C15.3169 316.706 16.699 318.871 18.418 320.753C20.0952 329.809 27.2989 330.669 35.0046 328.031H35.0093C35.8547 331.706 37.0798 335.282 38.6645 338.703H51.7223C51.7691 338.558 51.8112 338.408 51.8533 338.263C50.6447 338.339 49.4313 338.267 48.2402 338.048C49.209 336.859 50.1778 335.661 51.1466 334.472C51.1682 334.45 51.1886 334.426 51.2075 334.402C51.6989 333.793 52.195 333.189 52.6864 332.581L52.6867 332.58C52.7129 330.715 52.4984 328.854 52.0494 327.044Z" fill="#F2F2F2"/>
</svg>
